<?xml version="1.0" standalone="no"?>
<!DOCTYPE svg PUBLIC "-//W3C//DTD SVG 20010904//EN"
 "http://www.w3.org/TR/2001/REC-SVG-20010904/DTD/svg10.dtd">
<svg version="1.0" xmlns="http://www.w3.org/2000/svg"
 width="947.000000pt" height="1280.000000pt" viewBox="0 0 947.000000 1280.000000"
 preserveAspectRatio="xMidYMid meet">
<metadata>
Created by potrace 1.15, written by Peter Selinger 2001-2017
</metadata>
<g transform="translate(0.000000,1280.000000) scale(0.100000,-0.100000)"
fill="#ffffff" stroke="none">
<path d="M3465 12789 c-1057 -80 -2062 -626 -2695 -1464 -606 -803 -869 -1803
-734 -2790 76 -558 288 -1111 606 -1584 802 -1190 2217 -1818 3643 -1615 203
29 412 77 606 140 61 19 115 32 119 27 4 -4 519 -998 1145 -2208 626 -1210
1250 -2416 1386 -2679 137 -264 261 -493 276 -509 187 -196 695 -112 1143 188
320 215 528 506 507 712 -3 31 -16 72 -30 96 -14 23 -752 1178 -1640 2565
l-1615 2524 97 88 c624 569 1043 1350 1175 2192 33 215 41 320 41 583 -1 290
-14 441 -61 689 -215 1144 -957 2131 -1995 2651 -614 308 -1298 445 -1974 394z"/>
</g>
</svg>
