<svg width="24" height="25" viewBox="0 0 24 25" fill="none" xmlns="http://www.w3.org/2000/svg">
<path d="M12.4034 12.5C10.8081 12.5 9.44245 11.9288 8.30641 10.7865C7.17037 9.64411 6.60234 8.27084 6.60234 6.66668C6.60234 5.06251 7.17037 3.68925 8.30641 2.54689C9.44245 1.40452 10.8081 0.833344 12.4034 0.833344C13.9987 0.833344 15.3644 1.40452 16.5004 2.54689C17.6365 3.68925 18.2045 5.06251 18.2045 6.66668C18.2045 8.27084 17.6365 9.64411 16.5004 10.7865C15.3644 11.9288 13.9987 12.5 12.4034 12.5ZM0.80127 24.1667V20.0833C0.80127 19.257 1.01301 18.4976 1.43649 17.8054C1.85997 17.1132 2.4217 16.5843 3.1217 16.2188C4.62031 15.4653 6.14309 14.9004 7.69005 14.5242C9.237 14.1479 10.8081 13.9593 12.4034 13.9583C13.9987 13.9574 15.5698 14.146 17.1168 14.5242C18.6637 14.9024 20.1865 15.4672 21.6851 16.2188C22.3861 16.5833 22.9483 17.1122 23.3718 17.8054C23.7953 18.4986 24.0065 19.2579 24.0056 20.0833V24.1667H0.80127ZM3.70181 21.25H21.105V20.0833C21.105 19.816 21.0388 19.5729 20.9063 19.3542C20.7739 19.1354 20.5984 18.9653 20.3799 18.8438C19.0747 18.1875 17.7573 17.6956 16.4279 17.3679C15.0985 17.0403 13.757 16.876 12.4034 16.875C11.0498 16.874 9.70834 17.0383 8.37892 17.3679C7.04951 17.6975 5.73218 18.1895 4.42694 18.8438C4.2094 18.9653 4.03392 19.1354 3.90049 19.3542C3.76707 19.5729 3.70084 19.816 3.70181 20.0833V21.25ZM12.4034 9.58334C13.2011 9.58334 13.8841 9.298 14.4526 8.7273C15.0212 8.15661 15.3049 7.46973 15.304 6.66668C15.303 5.86362 15.0192 5.17723 14.4526 4.60751C13.8861 4.03779 13.203 3.75195 12.4034 3.75001C11.6038 3.74807 10.9212 4.0339 10.3556 4.60751C9.79004 5.18112 9.50578 5.86751 9.50288 6.66668C9.49998 7.46584 9.78424 8.15272 10.3556 8.7273C10.927 9.30189 11.6096 9.58723 12.4034 9.58334Z" fill="white"/>
</svg>
