<svg width="25" height="25" viewBox="0 0 25 25" fill="none" xmlns="http://www.w3.org/2000/svg">
<path d="M22.2387 24.2692L13.8048 15.7885C13.1355 16.3269 12.3657 16.7532 11.4956 17.0673C10.6254 17.3814 9.69945 17.5385 8.71773 17.5385C6.28574 17.5385 4.22769 16.6913 2.5436 14.9969C0.859501 13.3026 0.0170065 11.2331 0.016114 8.78845C0.0152215 6.34384 0.857716 4.27435 2.5436 2.57999C4.22948 0.885632 6.28752 0.0384521 8.71773 0.0384521C11.1479 0.0384521 13.2064 0.885632 14.8932 2.57999C16.58 4.27435 17.422 6.34384 17.4193 8.78845C17.4193 9.77563 17.2632 10.7067 16.9508 11.5817C16.6384 12.4567 16.2145 13.2308 15.679 13.9038L24.1129 22.3846L22.2387 24.2692ZM8.71773 14.8461C10.3911 14.8461 11.8137 14.2574 12.9855 13.08C14.1574 11.9026 14.7428 10.472 14.7419 8.78845C14.741 7.10486 14.1556 5.6748 12.9855 4.49826C11.8155 3.32172 10.3929 2.73255 8.71773 2.73076C7.04255 2.72897 5.6204 3.31813 4.45126 4.49826C3.28212 5.67839 2.69621 7.10845 2.69353 8.78845C2.69086 10.4685 3.27676 11.899 4.45126 13.08C5.62575 14.261 7.04791 14.8497 8.71773 14.8461Z" fill="white"/>
</svg>
