<svg width="77" height="74" viewBox="0 0 77 74" fill="none" xmlns="http://www.w3.org/2000/svg">
<path d="M12.5061 37.0155C12.5061 23.2707 24.1164 12.158 38.4765 12.158C52.8365 12.158 64.4468 23.2707 64.4468 37.0155C64.4468 50.7602 52.8365 61.873 38.4765 61.873C24.1164 61.873 12.5061 50.7602 12.5061 37.0155ZM61.3914 37.0155C61.3914 24.8791 51.1561 15.0824 38.4765 15.0824C25.7968 15.0824 15.5615 24.8791 15.5615 37.0155C15.5615 49.1518 25.7968 58.9485 38.4765 58.9485C51.1561 58.9485 61.3914 49.1518 61.3914 37.0155Z" fill="white"/>
<path d="M35.8798 49.1519L48.5595 37.0156L35.8798 24.8792L38.0186 22.8322L52.8369 37.0156L38.0186 51.199L35.8798 49.1519Z" fill="white"/>
<path d="M50.6982 35.5533L50.6982 38.4778L24.7279 38.4778L24.7279 35.5533L50.6982 35.5533Z" fill="white"/>
</svg>
