<svg width="18" height="19" viewBox="0 0 18 19" fill="none" xmlns="http://www.w3.org/2000/svg">
<path d="M1 5.28C1 4.88217 1.15804 4.50064 1.43934 4.21934C1.72064 3.93803 2.10218 3.78 2.5 3.78H15.5C15.8978 3.78 16.2794 3.93803 16.5607 4.21934C16.842 4.50064 17 4.88217 17 5.28V14.28C17 14.6778 16.842 15.0594 16.5607 15.3407C16.2794 15.622 15.8978 15.78 15.5 15.78H2.5C2.10218 15.78 1.72064 15.622 1.43934 15.3407C1.15804 15.0594 1 14.6778 1 14.28V5.28Z" stroke="white" stroke-width="1.5" stroke-linecap="round" stroke-linejoin="round"/>
<path d="M16 4.78L10.39 9.286C9.57 9.945 8.43 9.945 7.61 9.286L2 4.78" stroke="white" stroke-width="1.5" stroke-linecap="round" stroke-linejoin="round"/>
</svg>
